<svg width="1280" height="189" viewBox="0 0 1280 189" fill="none" xmlns="http://www.w3.org/2000/svg">
<path d="M125.062 37.1267H35.3963V78.2586H113.899V109.32H35.3963V184.304H-1.73168V5.70135H125.062V37.1267ZM226.132 114.173H187.548V184.304H151.027V5.45868H238.751C251.289 5.70135 260.914 7.23824 267.628 10.0693C274.423 12.9005 280.166 17.0662 284.858 22.5667C288.74 27.0964 291.814 32.1116 294.079 37.612C296.344 43.1124 297.476 49.3813 297.476 56.4187C297.476 64.912 295.333 73.284 291.046 81.5346C286.758 89.7044 279.681 95.488 269.812 98.8853C278.063 102.202 283.887 106.934 287.284 113.081C290.762 119.148 292.502 128.45 292.502 140.988V153C292.502 161.17 292.825 166.711 293.472 169.623C294.443 174.233 296.708 177.631 300.267 179.815V184.304H259.135C258.002 180.34 257.194 177.145 256.708 174.719C255.738 169.703 255.212 164.567 255.131 159.309L254.888 142.687C254.726 131.281 252.623 123.678 248.579 119.876C244.615 116.074 237.133 114.173 226.132 114.173ZM248.822 81.656C256.263 78.2586 259.984 71.5449 259.984 61.5147C259.984 50.6755 256.385 43.3956 249.186 39.6747C245.141 37.5716 239.074 36.52 230.986 36.52H187.548V84.568H229.894C238.306 84.568 244.615 83.5973 248.822 81.656ZM454.239 106.165H367.364V152.151H466.372V184.304H330.843V5.45868H462.004V37.1267H367.364V75.104H454.239V106.165ZM619.98 106.165H533.105V152.151H632.113V184.304H496.584V5.45868H627.745V37.1267H533.105V75.104H619.98V106.165ZM791.181 5.45868V37.1267H737.673V184.304H700.06V37.1267H646.309V5.45868H791.181ZM899.411 147.54H833.527L821.151 184.304H782.081L845.903 5.45868H888.127L951.462 184.304H910.937L899.411 147.54ZM888.976 116.721L866.651 46.348L843.597 116.721H888.976ZM1039.19 158.46C1048 158.46 1055.16 157.489 1060.66 155.548C1071.1 151.827 1076.31 144.911 1076.31 134.8C1076.31 128.895 1073.73 124.325 1068.55 121.089C1063.37 117.935 1055.24 115.144 1044.16 112.717L1025.23 108.471C1006.63 104.264 993.767 99.6942 986.649 94.76C974.597 86.5093 968.57 73.6075 968.57 56.0547C968.57 40.0387 974.394 26.7324 986.042 16.136C997.69 5.53957 1014.8 0.241352 1037.37 0.241352C1056.21 0.241352 1072.27 5.25646 1085.54 15.2867C1098.88 25.236 1105.88 39.7151 1106.53 58.724H1070.61C1069.96 47.9658 1065.27 40.3218 1056.54 35.792C1050.71 32.7991 1043.47 31.3027 1034.82 31.3027C1025.19 31.3027 1017.51 33.244 1011.77 37.1267C1006.02 41.0093 1003.15 46.4289 1003.15 53.3853C1003.15 59.7755 1005.98 64.548 1011.64 67.7027C1015.28 69.8058 1023.05 72.2729 1034.94 75.104L1065.76 82.5053C1079.27 85.7409 1089.46 90.0684 1096.33 95.488C1107.01 103.9 1112.35 116.074 1112.35 132.009C1112.35 148.349 1106.08 161.938 1093.54 172.777C1081.09 183.535 1063.45 188.915 1040.64 188.915C1017.35 188.915 999.025 183.616 985.678 173.02C972.332 162.343 965.658 147.702 965.658 129.097H1001.33C1002.46 137.267 1004.69 143.374 1008 147.419C1014.07 154.779 1024.46 158.46 1039.19 158.46ZM1298.48 184.304H1250.43L1195.22 106.165L1177.39 124.487V184.304H1140.62V5.45868H1177.39V79.108L1246.42 5.45868H1294.71L1221.43 79.108L1298.48 184.304Z" fill="#0D0D0D"/>
</svg>
